/* XPM */
static char * exit_xpm[] = {
"50 50 416 2",
"  	c #5C6278",
". 	c #5B6177",
"+ 	c #5A6177",
"@ 	c #5A6076",
"# 	c #5A6176",
"$ 	c #5B6176",
"% 	c #5D6379",
"& 	c #61667C",
"* 	c #656A80",
"= 	c #686C83",
"- 	c #666B82",
"; 	c #646981",
"> 	c #636880",
", 	c #6E7288",
"' 	c #7D7F96",
") 	c #8788A0",
"! 	c #8788A2",
"~ 	c #81829F",
"{ 	c #7B7C9A",
"] 	c #777999",
"^ 	c #777898",
"/ 	c #9696AF",
"( 	c #A5A4BF",
"_ 	c #A6A4C2",
": 	c #9D9BBC",
"< 	c #9290B5",
"[ 	c #8C8BB2",
"} 	c #8B8AB1",
"| 	c #8C8AB2",
"1 	c #B7B4D2",
"2 	c #B8B4D5",
"3 	c #ACA9CD",
"4 	c #9E9BC4",
"5 	c #9794BF",
"6 	c #9693BE",
"7 	c #B7B3D6",
"8 	c #AAA7CC",
"9 	c #9A97BF",
"0 	c #9290B9",
"a 	c #908EB8",
"b 	c #918FB8",
"c 	c #9B99BD",
"d 	c #8989AC",
"e 	c #8080A3",
"f 	c #7E7EA1",
"g 	c #7F7FA2",
"h 	c #757795",
"i 	c #6A6E89",
"j 	c #686C87",
"k 	c #6A6D89",
"l 	c #6B6E8A",
"m 	c #5F647C",
"n 	c #5F647D",
"o 	c #636782",
"p 	c #646784",
"q 	c #636684",
"r 	c #656885",
"s 	c #626682",
"t 	c #696A8B",
"u 	c #6B6C8F",
"v 	c #6B6B8F",
"w 	c #696A8E",
"x 	c #69698E",
"y 	c #69698D",
"z 	c #6A6A8E",
"A 	c #6C6C90",
"B 	c #6C6D90",
"C 	c #717197",
"D 	c #76749D",
"E 	c #78769F",
"F 	c #7877A0",
"G 	c #7978A0",
"H 	c #77769F",
"I 	c #76759E",
"J 	c #75739D",
"K 	c #75749D",
"L 	c #7E7DA7",
"M 	c #8686AE",
"N 	c #8C8EB3",
"O 	c #9092B5",
"P 	c #9193B6",
"Q 	c #8E90B4",
"R 	c #8889AF",
"S 	c #8180A9",
"T 	c #7B79A5",
"U 	c #7975A3",
"V 	c #6A6A8F",
"W 	c #77759F",
"X 	c #8685AD",
"Y 	c #9699BB",
"Z 	c #A4A9C7",
"` 	c #ABB2CD",
" .	c #ADB4CF",
"..	c #ADB3CE",
"+.	c #ACB3CE",
"@.	c #A7AECA",
"#.	c #9CA0C0",
"$.	c #8C8DB2",
"%.	c #7E7CA7",
"&.	c #7874A2",
"*.	c #8D8FB3",
"=.	c #A5AAC8",
"-.	c #B8C1D8",
";.	c #C2CCE1",
">.	c #C5CFE4",
",.	c #C4CEE3",
"'.	c #BDC6DD",
").	c #8281AA",
"!.	c #7874A3",
"~.	c #666886",
"{.	c #6E6E93",
"].	c #7F7EA6",
"^.	c #9698BB",
"/.	c #B1B7D1",
"(.	c #C6CFE4",
"_.	c #D1DCED",
":.	c #D4E0F0",
"<.	c #D4DFEF",
"[.	c #D3DEEF",
"}.	c #D4DFF0",
"|.	c #CCD6E8",
"1.	c #B9C1D8",
"2.	c #A0A4C3",
"3.	c #8A88B1",
"4.	c #7E7AA9",
"5.	c #6C6F8B",
"6.	c #696C8A",
"7.	c #75759A",
"8.	c #8987B0",
"9.	c #A1A2C5",
"0.	c #BBC0D9",
"a.	c #D0D8EA",
"b.	c #DBE5F3",
"c.	c #DDE8F5",
"d.	c #DDE7F5",
"e.	c #DCE7F5",
"f.	c #DCE7F4",
"g.	c #D5DEEE",
"h.	c #C3CAE0",
"i.	c #AAADCC",
"j.	c #9593BC",
"k.	c #8A86B5",
"l.	c #7F7FA1",
"m.	c #6C6F8C",
"n.	c #6D6F8E",
"o.	c #7D7CA2",
"p.	c #9391B9",
"q.	c #AAAACD",
"r.	c #C2C6DF",
"s.	c #D6DDED",
"t.	c #E0E9F5",
"u.	c #E3ECF7",
"v.	c #E2EBF7",
"w.	c #DBE3F1",
"x.	c #CACFE4",
"y.	c #B3B5D4",
"z.	c #9F9DC6",
"A.	c #9591C0",
"B.	c #7E7FA1",
"C.	c #6D708C",
"D.	c #707290",
"E.	c #8280A7",
"F.	c #9896BF",
"G.	c #AFAFD2",
"H.	c #C7CAE3",
"I.	c #DAE0EF",
"J.	c #E4ECF7",
"K.	c #E6EFF8",
"L.	c #E6EEF8",
"M.	c #E5EDF8",
"N.	c #DEE6F3",
"O.	c #CED3E7",
"P.	c #B8B9D8",
"Q.	c #A5A3CD",
"R.	c #9C97C7",
"S.	c #707291",
"T.	c #8382A8",
"U.	c #9A98C1",
"V.	c #B1B1D4",
"W.	c #C8CCE4",
"X.	c #DBE1F0",
"Y.	c #E5EDF7",
"Z.	c #E8F0F9",
"`.	c #E7EFF9",
" +	c #E7F0F9",
".+	c #E0E7F3",
"++	c #CFD4E8",
"@+	c #BABBDA",
"#+	c #A7A4CE",
"$+	c #9E99C9",
"%+	c #9A97C1",
"&+	c #B1B0D4",
"*+	c #C8CBE4",
"=+	c #E5ECF7",
"-+	c #E7EFF8",
";+	c #DFE7F3",
">+	c #B9BADA",
",+	c #8281A8",
"'+	c #9997C0",
")+	c #B0B0D3",
"!+	c #DAE1F0",
"~+	c #DFE6F3",
"{+	c #B9BAD9",
"]+	c #A6A4CE",
"^+	c #9D99C8",
"/+	c #E0E7F4",
"(+	c #D0D4E9",
"_+	c #E0E8F4",
":+	c #D0D5E9",
"<+	c #E3EBF5",
"[+	c #DCE2F0",
"}+	c #CCD0E5",
"|+	c #B7B8D8",
"1+	c #A6A3CE",
"2+	c #E3EBF6",
"3+	c #DEE5F1",
"4+	c #D6DDEB",
"5+	c #CCD2E3",
"6+	c #BFC2DB",
"7+	c #A4A1CC",
"8+	c #9E9AC9",
"9+	c #B1B0D3",
"0+	c #E8F1FA",
"a+	c #D3D9E7",
"b+	c #C2C7DA",
"c+	c #B4B7CF",
"d+	c #AAABCB",
"e+	c #A5A3CA",
"f+	c #A19ECA",
"g+	c #9F9BCA",
"h+	c #8381A8",
"i+	c #C7CBE3",
"j+	c #DAE0F0",
"k+	c #E8F0FA",
"l+	c #DCE3EF",
"m+	c #C7CDDE",
"n+	c #ADB0C9",
"o+	c #9999BB",
"p+	c #9593BB",
"q+	c #9A97C2",
"r+	c #9F9BC8",
"s+	c #A09CCB",
"t+	c #AFAFD3",
"u+	c #C5C9E2",
"v+	c #D6DDEE",
"w+	c #E4EDF8",
"x+	c #E1EAF6",
"y+	c #D6DEEC",
"z+	c #BEC4D8",
"A+	c #9FA2BF",
"B+	c #8887AF",
"C+	c #8885B2",
"D+	c #9490BE",
"E+	c #9E9AC8",
"F+	c #A19DCB",
"G+	c #ADADD2",
"H+	c #C1C5E1",
"I+	c #D1D9EC",
"J+	c #DAE3F2",
"K+	c #D0D9EA",
"L+	c #B8BFD5",
"M+	c #9A9CBC",
"N+	c #8482AD",
"O+	c #8682B1",
"P+	c #938FBE",
"Q+	c #9D99C7",
"R+	c #9996C0",
"S+	c #ACACD2",
"T+	c #BEC3E0",
"U+	c #CCD5EA",
"V+	c #D8E3F3",
"W+	c #D5E1F1",
"X+	c #CBD5E8",
"Y+	c #B6BDD4",
"Z+	c #999CBC",
"`+	c #8684AE",
" @	c #8884B2",
".@	c #9E9AC7",
"+@	c #CDD5EA",
"@@	c #D5E0F0",
"#@	c #D8E4F3",
"$@	c #D6E1F1",
"%@	c #8783B2",
"&@	c #ADAED2",
"*@	c #C2C6E1",
"=@	c #DAE4F3",
"-@	c #DEE8F5",
";@	c #D1DAEA",
">@	c #B9C0D5",
",@	c #9A9DBC",
"'@	c #C5C9E3",
")@	c #D7DEEE",
"!@	c #E1E9F5",
"~@	c #E2EBF6",
"{@	c #D7DFED",
"]@	c #BFC5D9",
"^@	c #A0A3C0",
"/@	c #8A88B0",
"(@	c #8986B3",
"_@	c #9591BF",
":@	c #DCE4F0",
"<@	c #C8CEDF",
"[@	c #AFB2CB",
"}@	c #9C9CBD",
"|@	c #9795BD",
"1@	c #9B98C3",
"2@	c #9F9BC9",
"3@	c #908EB7",
"4@	c #6D6F8C",
"5@	c #E0E8F3",
"6@	c #D4DBE9",
"7@	c #C5CADC",
"8@	c #B7BBD2",
"9@	c #ADAECD",
"0@	c #A6A5CB",
"a@	c #A29ECA",
"b@	c #E4EBF6",
"c@	c #DFE7F2",
"d@	c #D8DFEC",
"e@	c #CFD5E6",
"f@	c #C1C5DD",
"g@	c #B1B1D3",
"h@	c #A4A2CC",
"i@	c #7B7C9B",
"j@	c #9E9BC3",
"k@	c #9795BC",
"l@	c #8383A4",
"m@	c #6F718D",
"n@	c #E4ECF6",
"o@	c #DDE4F1",
"p@	c #CDD1E6",
"q@	c #9D99C9",
"r@	c #82839F",
"s@	c #9D9BBD",
"t@	c #ABA8CC",
"u@	c #A4A1C4",
"v@	c #8C8CAA",
"w@	c #727590",
"x@	c #C9CCE4",
"y@	c #DBE2F1",
"z@	c #E6EDF8",
"A@	c #E9F1FA",
"B@	c #E2E9F5",
"C@	c #D1D6E9",
"D@	c #8888A3",
"E@	c #B6B3D3",
"F@	c #AEABCA",
"G@	c #9393AE",
"H@	c #767891",
"I@	c #8180A7",
"J@	c #B0B0D4",
"K@	c #D0D4E8",
"L@	c #8788A1",
"M@	c #A6A4BF",
"N@	c #B5B3CF",
"O@	c #ADABC7",
"P@	c #9393AC",
"Q@	c #757890",
"R@	c #6F718F",
"S@	c #7F7EA5",
"T@	c #9693BD",
"U@	c #ACABCF",
"V@	c #C2C5DF",
"W@	c #D4DAEB",
"X@	c #DEE5F2",
"Y@	c #D9DFEF",
"Z@	c #CACEE5",
"`@	c #B6B7D8",
" #	c #A6A3CD",
".#	c #7E8097",
"+#	c #9796AF",
"@#	c #A3A2BC",
"##	c #9D9CB5",
"$#	c #6F738A",
"%#	c #6C6E8C",
"&#	c #7A799F",
"*#	c #8D8BB4",
"=#	c #A1A0C6",
"-#	c #B5B6D5",
";#	c #C5C8E0",
">#	c #CED2E7",
",#	c #D0D5E8",
"'#	c #BFC1DD",
")#	c #B0AFD4",
"!#	c #6E7289",
"~#	c #7E7F97",
"{#	c #86879F",
"]#	c #81839A",
"^#	c #74778D",
"/#	c #676B83",
"(#	c #686B88",
"_#	c #737398",
":#	c #8381AA",
"<#	c #A3A2C7",
"[#	c #B1B1D2",
"}#	c #B9BBDA",
"|#	c #A8A6CF",
"1#	c #A29ECB",
"2#	c #686C82",
"3#	c #666B81",
"4#	c #62677D",
"5#	c #60657C",
"6#	c #7A78A2",
"7#	c #8784AF",
"8#	c #9491BD",
"9#	c #9F9DC7",
"0#	c #A7A5CF",
"a#	c #A09DCA",
"b#	c #A09CCA",
"c#	c #5D637A",
"d#	c #636783",
"e#	c #6C6D91",
"f#	c #76749E",
"g#	c #827FAB",
"h#	c #8E8AB8",
"i#	c #9894C3",
"    . + @ @ @ # $ $ $ $ $ $ $ $ $ $ $ $ $ $ $ $ $ $ $ $ $ $ $ $ $ $ $ $ $ $ $ $ $ $ # @ @ @ + .     ",
"  % & * = = - ; > > > > > > > > > > > > > > > > > > > > > > > > > > > > > > > > > > ; - = = * & %   ",
". & , ' ) ! ~ { ] ^ ^ ^ ^ ^ ^ ^ ^ ^ ^ ^ ^ ^ ^ ^ ^ ^ ^ ^ ^ ^ ^ ^ ^ ^ ^ ^ ^ ^ ^ ^ ^ ] { ~ ! ) ' , & . ",
"+ * ' / ( _ : < [ } | | | | | | | | | | | | | | | | | | | | | | | | | | | | | | } [ < : _ ( / ' * + ",
"@ = ) ( 1 2 3 4 5 6 5 5 5 5 5 5 5 5 5 5 5 5 5 5 5 5 5 5 5 5 5 5 5 5 5 5 5 5 5 5 6 5 4 3 2 1 ( ) = @ ",
"@ = ! _ 2 7 8 9 0 a b b b b b b b b b b b b b b b b b b b b b b b b b b b b b b a 0 9 8 7 2 _ ! = @ ",
"@ - ~ : 3 8 c d e f g g g g g g g g g g g g g g g g g g g g g g g g g g g g g g f e d c 8 3 : ~ - @ ",
"# ; { < 4 9 d h i j k l l l l l l l l l l l l l l l l l l l l l l l l l l l l k j i h d 9 4 < { ; # ",
"$ > ] [ 5 0 e i m n o p p p q q q q q q q p p r r r r p p q q q q q q q p p p o n m i e 0 5 [ ] > $ ",
"$ > ^ } 6 a f j n s t u v w x y x x y x x z v A B B A v z x x y x x y x w v u t s n j f a 6 } ^ > $ ",
"$ > ^ | 5 b g k o t C D E F G G G G G G F H I D J J D I H F G G G G G G F E D C t o k g b 5 | ^ > $ ",
"$ > ^ | 5 b g l p v K L M N O P P P P P Q R S T U U T S R Q P P P P P O N M L K v p l g b 5 | ^ > $ ",
"$ > ^ | 5 b g l p V W X Y Z `  . ... .+.@.#.$.%.&.&.%.$.#.@.+. ... . .` Z Y X W V p l g b 5 | ^ > $ ",
"$ > ^ | 5 b g l p V G *.=.-.;.>.,.,.>.,.'...Y ).!.!.).Y ..'.,.>.,.,.>.;.-.=.*.G V p l g b 5 | ^ > $ ",
"$ > ^ | 5 b g l ~.{.].^./.(._.:.<.[.}.[.|.1.2.3.4.4.3.2.1.|.[.}.[.<.:._.(./.^.].{.~.l g b 5 | ^ > $ ",
"$ > ^ | 5 b g 5.6.7.8.9.0.a.b.c.d.e.c.f.g.h.i.j.k.k.j.i.h.g.f.c.e.d.c.b.a.0.9.8.7.6.5.g b 5 | ^ > $ ",
"$ > ^ | 5 b l.m.n.o.p.q.r.s.t.u.v.v.u.v.w.x.y.z.A.A.z.y.x.w.v.u.v.v.u.t.s.r.q.p.o.n.m.l.b 5 | ^ > $ ",
"$ > ^ | 5 b B.C.D.E.F.G.H.I.J.K.L.M.K.M.N.O.P.Q.R.R.Q.P.O.N.M.K.M.L.K.J.I.H.G.F.E.D.C.B.b 5 | ^ > $ ",
"$ > ^ | 5 b B.C.S.T.U.V.W.X.Y.Z.`.L. +L..+++@+#+$+$+#+@+++.+L. +L.`.Z.Y.X.W.V.U.T.S.C.B.b 5 | ^ > $ ",
"$ > ^ | 5 b B.C.S.T.%+&+*+X.=+`.-+L.`.L.;+++>+#+$+$+#+>+++;+L.`.L.-+`.=+X.*+&+%+T.S.C.B.b 5 | ^ > $ ",
"$ > ^ | 5 b B.C.S.,+'+)+*+!+J.`.K.L.`.L.~+++{+]+^+^+]+{+++~+L.`.L.K.`.J.!+*+)+'+,+S.C.B.b 5 | ^ > $ ",
"$ > ^ | 5 b B.C.S.,+'+)+*+!+J.`.K.L.`.L.~+++{+]+^+^+]+{+++~+L.`.L.K.`.J.!+*+)+'+,+S.C.B.b 5 | ^ > $ ",
"$ > ^ | 5 b B.C.S.,+'+)+*+!+J.`.K.L.`.L.~+++{+]+^+^+]+{+++~+L.`.L.K.`.J.!+*+)+'+,+S.C.B.b 5 | ^ > $ ",
"$ > ^ | 5 b B.C.S.,+'+)+*+!+J.`.K.L.`.L.~+++{+]+^+^+]+{+++~+L.`.L.K.`.J.!+*+)+'+,+S.C.B.b 5 | ^ > $ ",
"$ > ^ | 5 b B.C.S.,+'+)+*+!+J.`.K.L.`.L.~+++{+]+^+^+]+{+++~+L.`.L.K.`.J.!+*+)+'+,+S.C.B.b 5 | ^ > $ ",
"$ > ^ | 5 b B.C.S.,+'+)+*+!+J.`.K.L.`.L.~+++{+]+^+^+]+{+++~+L.`.L.K.`.J.!+*+)+'+,+S.C.B.b 5 | ^ > $ ",
"$ > ^ | 5 b B.C.S.,+'+)+*+!+J.`.K.L.`.L.~+++{+]+^+^+]+{+++~+L.`.L.K.`.J.!+*+)+'+,+S.C.B.b 5 | ^ > $ ",
"$ > ^ | 5 b B.C.S.,+'+)+*+!+J.`.K.L.Z.`./+(+@+#+^+^+#+@+(+/+`.Z.L.K.`.J.!+*+)+'+,+S.C.B.b 5 | ^ > $ ",
"$ > ^ | 5 b B.C.S.,+'+)+*+!+J.`.K.L.Z.`._+:+@+#+^+^+#+@+:+_+`.Z.L.K.`.J.!+*+)+'+,+S.C.B.b 5 | ^ > $ ",
"$ > ^ | 5 b B.C.S.,+'+)+*+!+J.`.K.M.Y.<+[+}+|+1+$+$+1+|+}+[+<+Y.M.K.`.J.!+*+)+'+,+S.C.B.b 5 | ^ > $ ",
"$ > ^ | 5 b B.C.S.,+'+)+*+X.Y.Z.-+2+3+4+5+6+)+7+8+8+7+)+6+5+4+3+2+-+Z.Y.X.*+)+'+,+S.C.B.b 5 | ^ > $ ",
"$ > ^ | 5 b B.C.S.,+'+9+*+X.Y.0+-+.+a+b+c+d+e+f+g+g+f+e+d+c+b+a+.+-+0+Y.X.*+9+'+,+S.C.B.b 5 | ^ > $ ",
"$ > ^ | 5 b B.C.S.h+'+)+i+j+J.k+M.l+m+n+o+p+q+r+s+s+r+q+p+o+n+m+l+M.k+J.j+i+)+'+h+S.C.B.b 5 | ^ > $ ",
"$ > ^ | 5 b B.C.S.T.'+t+u+v+t.w+x+y+z+A+B+C+D+E+F+F+E+D+C+B+A+z+y+x+w+t.v+u+t+'+T.S.C.B.b 5 | ^ > $ ",
"$ > ^ | 5 b B.C.S.T.'+G+H+I+J+d.b.K+L+M+N+O+P+Q+F+F+Q+P+O+N+M+L+K+b.d.J+I+H+G+'+T.S.C.B.b 5 | ^ > $ ",
"$ > ^ | 5 b B.C.S.T.R+S+T+U+}.V+W+X+Y+Z+`+ @D+.@F+F+.@D+ @`+Z+Y+X+W+V+}.U+T+S+R+T.S.C.B.b 5 | ^ > $ ",
"$ > ^ | 5 b B.C.S.T.R+S+T++@@@#@$@|.Y+Z+`+%@D+.@F+F+.@D+%@`+Z+Y+|.$@#@@@+@T+S+R+T.S.C.B.b 5 | ^ > $ ",
"$ > ^ | 5 b B.C.S.T.'+&@*@I+=@-@b.;@>@,@N+O+P+Q+F+F+Q+P+O+N+,@>@;@b.-@=@I+*@&@'+T.S.C.B.b 5 | ^ > $ ",
"$ > ^ | 5 b B.C.S.h+'+t+'@)@!@w+~@{@]@^@/@(@_@E+F+F+E+_@(@/@^@]@{@~@w+!@)@'@t+'+h+S.C.B.b 5 | ^ > $ ",
"$ > ^ | 5 b f C.S.h+'+)+*+j+J.k+L.:@<@[@}@|@1@2@s+s+2@1@|@}@[@<@:@L.k+J.j+*+)+'+h+S.C.f b 5 | ^ > $ ",
"$ > ^ } 6 3@f 4@S.h+'+9+*+X.Y.0+-+5@6@7@8@9@0@a@g+g+a@0@9@8@7@6@5@-+0+Y.X.*+9+'+h+S.4@f 3@6 } ^ > $ ",
"$ > ] [ 5 b l.C.S.,+'+)+*+X.=+Z.-+b@c@d@e@f@g@h@8+8+h@g@f@e@d@c@b@-+Z.=+X.*+)+'+,+S.C.l.b 5 [ ] > $ ",
"# ; i@< j@k@l@m@S.,+'+&+*+X.=+ +-+L.L.n@o@p@P.]+q@q@]+P.p@o@n@L.L.-+ +=+X.*+&+'+,+S.m@l@k@j@< i@; # ",
"@ - r@s@t@u@v@w@S.,+U.V.x@y@z@0+Z. +A@k+B@C@@+#+^+^+#+@+C@B@k+A@ +Z.0+z@y@x@V.U.,+S.w@v@u@t@s@r@- @ ",
"@ = D@_ E@F@G@H@S.I@'+J@*+X.=+`.-+L.Z.`./+K@@+#+^+^+#+@+K@/+`.Z.L.-+`.=+X.*+J@'+I@S.H@G@F@E@_ D@= @ ",
"@ = L@M@N@O@P@Q@R@S@T@U@V@W@X@_+/+~+/+~+Y@Z@`@ #$+$+ #`@Z@Y@~+/+~+/+_+X@W@V@U@T@S@R@Q@P@O@N@M@L@= @ ",
"+ * .#+#@###) $#%#&#*#=#-#;#>#:+++++,#++Z@'#)#7+8+8+7+)#'#Z@++,#++++:+>#;#-#=#*#&#%#$#) ##@#+#.#* + ",
". & !#~#{#]#^#/#(#_#:#0 <#[#P.@+}#{+@+{+`@)#|#1#g+g+1#|#)#`@{+@+{+}#@+P.[#<#0 :#_#(#/#^#]#{#~#!#& . ",
"  % & * 2#3#4#5#r {.6#7#8#9# #0##+#+#+#+ #7+1#a#b#b#a#1#7+ ##+#+#+#+0# #9#8#7#6#{.r 5#4#3#2#* & %   ",
"    . # @ @ # c#d#e#f#g#h#i#E+g+g+2@2@2@2@g+b#b#b#b#b#b#g+2@2@2@2@g+g+E+i#h#g#f#e#d#c## @ @ # .     "};
